<?xml version="1.0" standalone="no"?><!DOCTYPE svg PUBLIC "-//W3C//DTD SVG 1.1//EN" "http://www.w3.org/Graphics/SVG/1.1/DTD/svg11.dtd"><svg t="1674309782084" class="icon" viewBox="0 0 1024 1024" version="1.1" xmlns="http://www.w3.org/2000/svg" p-id="2133" width="128" height="128" xmlns:xlink="http://www.w3.org/1999/xlink"><path d="M295.62 386.32a95 95 0 1 1 95-95 95.11 95.11 0 0 1-95 95z" fill="#FFFFFF" p-id="2134"></path><path d="M295.62 216.32a75 75 0 1 1-75 75 75.09 75.09 0 0 1 75-75m0-40a115 115 0 0 0-115 115 115 115 0 0 0 115 115 115 115 0 0 0 115-115 115 115 0 0 0-115-115z" fill="" p-id="2135"></path><path d="M506.18 351.15m-95 0a95 95 0 1 0 190 0 95 95 0 1 0-190 0Z" fill="#CCCCCC" p-id="2136"></path><path d="M506.18 276.15a75 75 0 1 1-75 75 75.09 75.09 0 0 1 75-75m0-40a115 115 0 0 0-115 115 115 115 0 0 0 115 115 115 115 0 0 0 115-115 115 115 0 0 0-115-115z" fill="" p-id="2137"></path><path d="M722.06 414.23m-95 0a95 95 0 1 0 190 0 95 95 0 1 0-190 0Z" fill="#FFFFFF" p-id="2138"></path><path d="M722.06 339.23a75 75 0 1 1-75 75 75.09 75.09 0 0 1 75-75m0-40a115 115 0 0 0 0 230 115 115 0 0 0 0-230z" fill="" p-id="2139"></path><path d="M852 530.53h-40v49.15h-69.94V425.69h-40v153.99H526.18V362.61h-40v217.07H315.62v-276.9h-40v276.9H212v-96.55h-40v364.55h40v-228h600v168h40V530.53z" fill="" p-id="2140"></path></svg>